#N struct 1008-knob float x float y;
#N struct 1008-handle float x float y float color;
#N struct 1009-knob float x float y;
#N struct 1009-handle float x float y float color;
#N canvas 156 155 1920 1038 12;
#X obj 336 267 bng 40 250 50 0 empty empty empty 0 -10 0 12 #ffffff #000000 #000000;
#X obj 329 325 random 100;
#X obj 337 346 / 100;
#X obj 336 393 pack;
#X obj 336 400 line;
#X obj 332 313 t b b;
#X obj 299 352 del;
#X obj 346 325 random 100;
#X obj 337 355 / 100;
#X obj 382 393 pack;
#X obj 382 400 line;
#X obj 346 313 t b b;
#X obj 412 311 del;
#X obj 316 325 random 1000;
#X obj 306 335 random 1000;
#X obj 330 426 *~ 1000;
#X obj 390 426 *~ 1000;
#X obj 450 426 osc~;
#X obj 489 426 osc~;
#X obj 527 426 *~ 0.2;
#X obj 579 426 dac~;
#X obj 363 253 knob 0 1 999 0;
#X obj 333 253 knob 0 1 999 0;
#X connect 0 0 5 0;
#X connect 0 0 11 0;
#X connect 1 0 2 0;
#X connect 2 0 3 0;
#X connect 3 0 4 0;
#X connect 4 0 22 0;
#X connect 5 0 1 0;
#X connect 5 1 14 0;
#X connect 6 0 5 0;
#X connect 7 0 8 0;
#X connect 8 0 9 0;
#X connect 9 0 10 0;
#X connect 10 0 21 0;
#X connect 11 0 7 0;
#X connect 11 1 13 0;
#X connect 12 0 11 0;
#X connect 13 0 9 1;
#X connect 13 0 12 0;
#X connect 14 0 3 1;
#X connect 14 0 6 0;
#X connect 15 0 17 0;
#X connect 16 0 18 0;
#X connect 17 0 19 0;
#X connect 18 0 19 0;
#X connect 19 0 20 0;
#X connect 21 0 16 0;
#X connect 22 0 15 0;
