#N struct 1007-knob float x float y;
#N struct 1007-handle float x float y float color;
#N canvas 327 70 901 809 12;
#X msg 567 293 clear;
#X obj 478 481 pointer;
#X obj 362 422 t f f;
#X obj 540 594 pointer;
#X obj 223 685 t f f;
#N canvas 322 664 832 366 knob-template 1;
#X obj 51 53 struct \$0-knob float x float y;
#X obj 53 87 filledcurve -x \$3 0 1 -8.5 -8.5 -12 0 -8.5 8.5 0 12 8.5 8.5 12 0 8.5 -8.5 0 -12 -8.5 -8.5, f 98;
#X coords 0 366 1 365 20 20 0;
#X restore 680 139 pd knob-template;
#X obj 362 457 sin;
#X obj 420 457 cos;
#X obj 362 389 *;
#X msg 380 269 1;
#X obj 380 317 * 8;
#X obj 380 293 atan;
#X msg 362 269 0, f 1;
#X msg 223 497 0;
#X obj 100 716 outlet;
#X text 416 292 Tau;
#X obj 328 625 + 7;
#X obj 362 481 * -7;
#X obj 420 481 * 7;
#X obj 380 364 * 0.75;
#N canvas 57 258 727 317 handle-template 0;
#X text 73 125 -2 -2 -3 0 -2 2 0 3 2 2 3 0 2 -2 0 -3 -2 -2;
#X obj 41 32 struct \$0-handle float x float y float color;
#X obj 41 64 filledcurve -x color color 0 -1.4 -1.4 -2 0 -1.4 1.4 0 2 1.4 1.4 2 0 1.4 -1.4 0 -2 -1.4 -1.4, f 92;
#X restore 680 114 pd handle-template;
#X obj 100 57 inlet;
#X obj 223 716 append \$0-knob x y;
#X obj 540 537 f \$0;
#X obj 478 422 f \$0;
#X obj 682 364 s pd-\$0-background;
#X msg 540 570 traverse pd-\$1-value \, bang;
#X obj 567 364 s pd-\$0-value;
#X obj 508 364 t b b;
#X obj 567 317 t a a;
#X obj 100 202 vsl 24 19 -0.4 0.4 0 0 empty empty empty 0 -9 0 12 #fcfcfc #000000 #000000 0 1;
#X obj 100 237 t f b;
#X obj 100 293 * 0.1;
#X obj 100 346 +;
#X obj 129 346 f;
#X obj 100 200 cnv 24 24 24 empty empty empty 20 12 0 12 #ffffff #404040 0;
#N canvas 5 -1041 887 934 \$0-value 0;
#X scalar 1007-knob 0 0 \;;
#X scalar 1007-handle -0 7 999 \;;
#X coords -12 -12 12 12 24 24 2 100 100;
#X restore 100 200 pd \$0-value;
#X obj 166 269 t f b;
#X msg 198 293 0, f 1;
#X obj 100 370 clip 0 1;
#X obj 166 237 /;
#X obj 270 218 -;
#X obj 225 89 loadbang;
#X obj 270 147 \$2;
#X obj 316 194 \$1;
#X obj 225 113 t b b b b, f 20;
#X obj 270 170 sel 0;
#X msg 270 194 1;
#X obj 100 542 *;
#X obj 100 610 +;
#X msg 478 457 traverse pd-\$1-value \, next \, next;
#X msg 100 170 set 0;
#X obj 362 237 t b b b b b;
#X obj 269 649 append \$0-handle x y color;
#X obj 269 570 t f f b;
#X obj 223 537 t f f;
#X obj 362 514 set \$0-handle x y;
#X obj 540 630 t a a;
#N canvas 130 130 574 387 handle_color 0;
#X obj 45 32 inlet;
#X obj 45 151 sel 0;
#X obj 45 90 f \$4;
#X obj 245 116 pdcontrol;
#X msg 245 92 args 0;
#X obj 45 65 t b b;
#X obj 45 285 f 999;
#X text 54 171 if no color given;
#X obj 245 140 list length;
#X obj 245 164 == 4;
#X obj 245 188 sel 1;
#X msg 245 212 0;
#X text 300 207 if handle color is set \, 0 can actually be 0;
#X obj 45 319 outlet;
#X connect 0 0 5 0;
#X connect 1 0 6 0;
#X connect 2 0 1 0;
#X connect 3 0 8 0;
#X connect 4 0 3 0;
#X connect 5 0 2 0;
#X connect 5 1 4 0;
#X connect 6 0 13 0;
#X connect 8 0 9 0;
#X connect 9 0 10 0;
#X connect 10 0 11 0;
#X connect 11 0 6 1;
#X restore 388 625 pd handle_color;
#X text 388 42 FIXME: infinite mode? (output only deltas);
#X text 390 64 FIXME: receiver / sender settable via argument;
#X connect 0 0 29 0;
#X connect 1 0 56 2;
#X connect 2 0 6 0;
#X connect 2 1 7 0;
#X connect 3 0 57 0;
#X connect 4 0 22 0;
#X connect 4 1 22 1;
#X connect 6 0 17 0;
#X connect 7 0 18 0;
#X connect 8 0 2 0;
#X connect 9 0 11 0;
#X connect 10 0 19 0;
#X connect 11 0 10 0;
#X connect 12 0 8 0;
#X connect 13 0 55 0;
#X connect 16 0 53 1;
#X connect 17 0 56 0;
#X connect 18 0 56 1;
#X connect 19 0 8 1;
#X connect 21 0 40 0;
#X connect 23 0 26 0;
#X connect 24 0 50 0;
#X connect 26 0 3 0;
#X connect 28 0 13 0;
#X connect 28 1 23 0;
#X connect 29 0 27 0;
#X connect 29 1 25 0;
#X connect 30 0 31 0;
#X connect 31 0 32 0;
#X connect 31 1 51 0;
#X connect 32 0 33 0;
#X connect 33 0 34 0;
#X connect 33 0 39 0;
#X connect 34 0 33 1;
#X connect 37 0 33 0;
#X connect 37 1 38 0;
#X connect 38 0 33 1;
#X connect 39 0 8 0;
#X connect 39 0 48 0;
#X connect 40 0 37 0;
#X connect 41 0 40 1;
#X connect 41 0 48 1;
#X connect 42 0 45 0;
#X connect 43 0 46 0;
#X connect 44 0 41 1;
#X connect 44 0 49 1;
#X connect 45 0 51 0;
#X connect 45 1 43 0;
#X connect 45 2 44 0;
#X connect 45 3 52 0;
#X connect 46 0 47 0;
#X connect 46 1 41 0;
#X connect 47 0 41 0;
#X connect 48 0 49 0;
#X connect 49 0 14 0;
#X connect 50 0 1 0;
#X connect 51 0 30 0;
#X connect 52 0 12 0;
#X connect 52 1 9 0;
#X connect 52 2 24 0;
#X connect 52 3 28 0;
#X connect 52 4 0 0;
#X connect 54 0 53 0;
#X connect 54 1 16 0;
#X connect 54 2 58 0;
#X connect 55 0 4 0;
#X connect 55 1 54 0;
#X connect 57 0 53 3;
#X connect 57 1 22 2;
#X connect 58 0 53 2;
#X coords 0 -1 1 1 24 24 2 100 200;
